<svg height="auto" viewBox="0 0 2000 1000" xmlns="http://www.w3.org/2000/svg"><path d="M0 998.04c21-6.77 63-20.304 105-33.855 42-13.55 63-21.393 105-33.898 42-12.506 63-13.031 105-28.627 42-15.596 63-26.148 105-49.354s63-33.312 105-66.675 63-90.89 105-100.14 63 58.788 105 53.892c42-4.896 63-60.777 105-78.372s63 9.416 105-9.603 63-79.985 105-85.49c42-5.506 63 67.227 105 57.963 42-9.265 63-45.386 105-104.285 42-58.9 63-139.585 105-190.21 42-50.624 63-45.01 105-62.912s63-6.633 105-26.595 63-95.257 105-73.215c42 22.043 63 122.743 105 183.426 42 60.683 63 118.043 105 119.992 42 1.948 84-88.2 105-110.25l5 640.168H0Z" fill="#444cf71a"/><path d="M0 998.04c21-6.77 63-20.304 105-33.855 42-13.55 63-21.393 105-33.898 42-12.506 63-13.031 105-28.627 42-15.596 63-26.148 105-49.354s63-33.312 105-66.675 63-90.89 105-100.14 63 58.788 105 53.892c42-4.896 63-60.777 105-78.372s63 9.416 105-9.603 63-79.985 105-85.49c42-5.506 63 67.227 105 57.963 42-9.265 63-45.386 105-104.285 42-58.9 63-139.585 105-190.21 42-50.624 63-45.01 105-62.912s63-6.633 105-26.595 63-95.257 105-73.215c42 22.043 63 122.743 105 183.426 42 60.683 63 118.043 105 119.992 42 1.948 84-88.2 105-110.25" fill="none" stroke="#444cf7" stroke-width="4"/></svg>